<svg width="38" height="38" viewBox="0 0 38 38" fill="none" xmlns="http://www.w3.org/2000/svg">
<rect x="0.5" y="0.5" width="37" height="37" rx="8.5" stroke="url(#paint0_linear_1795_17376)"/>
<path d="M25.0007 13.6667H22.934C22.7793 12.9143 22.3699 12.2382 21.7748 11.7525C21.1798 11.2667 20.4355 11.001 19.6673 11L18.334 11C17.5658 11.001 16.8215 11.2667 16.2265 11.7525C15.6314 12.2382 15.222 12.9143 15.0673 13.6667H13.0007C12.8238 13.6667 12.6543 13.7369 12.5292 13.8619C12.4042 13.987 12.334 14.1565 12.334 14.3333C12.334 14.5101 12.4042 14.6797 12.5292 14.8047C12.6543 14.9298 12.8238 15 13.0007 15H13.6673L13.6673 23.6667C13.6684 24.5504 14.0199 25.3976 14.6448 26.0225C15.2697 26.6474 16.1169 26.9989 17.0007 27H21.0007C21.8844 26.9989 22.7316 26.6474 23.3565 26.0225C23.9814 25.3976 24.3329 24.5504 24.334 23.6667V15H25.0007C25.1775 15 25.347 14.9298 25.4721 14.8047C25.5971 14.6797 25.6673 14.5101 25.6673 14.3333C25.6673 14.1565 25.5971 13.987 25.4721 13.8619C25.347 13.7369 25.1775 13.6667 25.0007 13.6667ZM18.334 12.3333L19.6673 12.3333C20.0808 12.3338 20.4841 12.4623 20.8217 12.701C21.1594 12.9397 21.4149 13.277 21.5533 13.6667L16.448 13.6667C16.5864 13.277 16.8419 12.9397 17.1796 12.701C17.5172 12.4623 17.9205 12.3338 18.334 12.3333ZM23.0007 23.6667C23.0007 24.1971 22.7899 24.7058 22.4149 25.0809C22.0398 25.456 21.5311 25.6667 21.0007 25.6667H17.0007C16.4702 25.6667 15.9615 25.456 15.5864 25.0809C15.2114 24.7058 15.0007 24.1971 15.0007 23.6667L15.0007 15L23.0007 15V23.6667Z" fill="url(#paint1_linear_1795_17376)"/>
<path d="M17.6667 22.9993C17.8435 22.9993 18.013 22.9291 18.1381 22.8041C18.2631 22.6791 18.3333 22.5095 18.3333 22.3327V18.3327C18.3333 18.1559 18.2631 17.9863 18.1381 17.8613C18.013 17.7363 17.8435 17.666 17.6667 17.666C17.4899 17.666 17.3203 17.7363 17.1953 17.8613C17.0702 17.9863 17 18.1559 17 18.3327V22.3327C17 22.5095 17.0702 22.6791 17.1953 22.8041C17.3203 22.9291 17.4899 22.9993 17.6667 22.9993Z" fill="url(#paint2_linear_1795_17376)"/>
<path d="M20.3327 22.9993C20.5095 22.9993 20.6791 22.9291 20.8041 22.8041C20.9291 22.6791 20.9994 22.5095 20.9994 22.3327V18.3327C20.9994 18.1559 20.9291 17.9863 20.8041 17.8613C20.6791 17.7363 20.5095 17.666 20.3327 17.666C20.1559 17.666 19.9863 17.7363 19.8613 17.8613C19.7363 17.9863 19.666 18.1559 19.666 18.3327V22.3327C19.666 22.5095 19.7363 22.6791 19.8613 22.8041C19.9863 22.9291 20.1559 22.9993 20.3327 22.9993Z" fill="url(#paint3_linear_1795_17376)"/>
<defs>
<linearGradient id="paint0_linear_1795_17376" x1="1" y1="19.0026" x2="37" y2="19.0015" gradientUnits="userSpaceOnUse">
<stop stop-color="#3377FF"/>
<stop offset="1" stop-color="#14CECF"/>
</linearGradient>
<linearGradient id="paint1_linear_1795_17376" x1="12.334" y1="19.0012" x2="25.6673" y2="19.0008" gradientUnits="userSpaceOnUse">
<stop stop-color="#1A66FF"/>
<stop offset="1" stop-color="#11B4B5"/>
</linearGradient>
<linearGradient id="paint2_linear_1795_17376" x1="17" y1="20.3331" x2="18.3333" y2="20.3331" gradientUnits="userSpaceOnUse">
<stop stop-color="#1A66FF"/>
<stop offset="1" stop-color="#11B4B5"/>
</linearGradient>
<linearGradient id="paint3_linear_1795_17376" x1="19.666" y1="20.3331" x2="20.9994" y2="20.3331" gradientUnits="userSpaceOnUse">
<stop stop-color="#1A66FF"/>
<stop offset="1" stop-color="#11B4B5"/>
</linearGradient>
</defs>
</svg>
