<svg width="118" height="220" viewBox="0 0 118 220" fill="none" xmlns="http://www.w3.org/2000/svg">
<path d="M-22.8154 4.61914C-18.9073 2.36282 -14.0927 2.36282 -10.1846 4.61914L61.6455 46.0898C65.5537 48.3463 67.9609 52.5165 67.9609 57.0293V139.971C67.9609 144.484 65.5537 148.654 61.6455 150.91L-10.1846 192.381C-14.0927 194.637 -18.9073 194.637 -22.8154 192.381L-94.6455 150.91C-98.5537 148.654 -100.961 144.484 -100.961 139.971V57.0293C-100.961 52.5165 -98.5537 48.3463 -94.6455 46.0898L-22.8154 4.61914Z" stroke="url(#paint0_linear_24478_26024)" stroke-width="1.68421"/>
<path d="M57.1846 164.619C61.0927 162.363 65.9073 162.363 69.8154 164.619L103.54 184.09C107.448 186.346 109.856 190.516 109.856 195.029V233.971C109.856 238.484 107.448 242.654 103.54 244.91L69.8154 264.381C65.9073 266.637 61.0927 266.637 57.1846 264.381L23.46 244.91C19.5517 242.654 17.1436 238.484 17.1436 233.971V195.029C17.1436 190.516 19.5517 186.346 23.46 184.09L57.1846 164.619Z" stroke="url(#paint1_linear_24478_26024)" stroke-width="1.68421"/>
<defs>
<linearGradient id="paint0_linear_24478_26024" x1="-115" y1="98.5144" x2="82" y2="98.5084" gradientUnits="userSpaceOnUse">
<stop stop-color="#C2D6FF"/>
<stop offset="1" stop-color="#B9F1F1"/>
</linearGradient>
<linearGradient id="paint1_linear_24478_26024" x1="9" y1="214.508" x2="118" y2="214.505" gradientUnits="userSpaceOnUse">
<stop stop-color="#C2D6FF"/>
<stop offset="1" stop-color="#B9F1F1"/>
</linearGradient>
</defs>
</svg>
