<svg width="345" height="200" viewBox="0 0 345 200" fill="none" xmlns="http://www.w3.org/2000/svg">
<g style="mix-blend-mode:luminosity">
<path d="M113.966 200L113.625 199.557L134.108 183.815C133.899 183.532 133.143 182.675 130.547 180.782C128.548 179.328 126.417 176.075 126.453 172.379C126.473 170.351 127.19 167.446 130.493 165.135C142.48 156.758 157.745 162.275 159.427 162.927L179.316 147.95L154.501 134.6C152.992 135.472 139.753 142.716 126.994 136.102C122.885 133.968 120.542 131.277 120.032 128.096C119.288 123.476 122.613 119.337 123.588 118.24L98.6134 105.324L79.3352 121.183L79.1621 121.073C79.0385 120.994 66.5656 113.269 55.7563 120.189C49.4884 124.198 46.3971 128.177 46.568 132.015C46.7883 136.983 52.5234 140.032 52.5796 140.063L52.9393 140.25L52.6381 140.52L33.7758 157.455L33.4004 157.037L51.9704 140.362C50.6619 139.593 46.2105 136.646 46.0082 132.039C45.8283 127.984 49.0073 123.84 55.4551 119.715C65.8641 113.065 77.712 119.569 79.288 120.493L98.5437 104.654L98.7078 104.74L124.51 118.085L124.245 118.355C124.2 118.402 119.78 123.008 120.587 128.008C121.07 131.001 123.312 133.557 127.253 135.601C140.459 142.451 154.209 134.123 154.346 134.038L154.485 133.953L180.357 147.869L180.007 148.132L159.51 163.563L159.362 163.503C159.202 163.438 143.197 156.936 130.814 165.596C127.707 167.77 127.033 170.486 127.012 172.383C126.976 175.883 128.991 178.954 130.877 180.33C134.377 182.88 134.719 183.678 134.739 183.862L134.757 184.02L134.632 184.116L113.966 200Z" fill="#DFDFDF"/>
<path d="M259.565 190.63L234.111 177.092C232.706 178.027 221.375 185.127 209.839 179.819C204.743 177.476 201.818 174.479 201.143 170.911C200.262 166.267 203.461 162.179 204.406 161.096L179.32 147.96L199.19 132.332C197.733 131.274 191.816 126.663 191.51 121.224C191.366 118.616 192.549 116.218 195.028 114.097C207.708 103.255 223.681 110.548 225.514 111.447L245.055 94.626L245.226 94.7182L269.989 108.131L269.798 108.392C269.753 108.452 265.455 114.439 267.37 120.048C268.625 123.724 272.238 126.453 278.112 128.158C294.454 132.899 300.882 124.938 300.942 124.857L301.086 124.673L301.295 124.783L325.81 137.798L325.547 138.295L301.23 125.386C300.14 126.582 293.276 133.151 277.955 128.699C271.894 126.939 268.153 124.088 266.838 120.226C265.039 114.954 268.321 109.576 269.162 108.324L245.131 95.3072L225.595 112.121L225.426 112.031C225.26 111.939 208.506 103.313 195.395 114.525C193.057 116.528 191.937 118.769 192.072 121.193C192.396 126.986 199.743 132.038 199.817 132.09L200.136 132.306L199.833 132.544L180.352 147.865L205.321 160.941L205.062 161.21C205.019 161.255 200.743 165.781 201.699 170.812C202.337 174.189 205.156 177.047 210.075 179.31C222.058 184.816 233.816 176.619 233.933 176.538L234.075 176.437L234.228 176.518L259.832 190.138L259.565 190.63Z" fill="#DFDFDF"/>
<path d="M98.6096 105.33L98.441 105.242L74.2461 92.3805L69.1427 95.2042C63.9472 98.0774 53.7674 97.8503 42.7423 90.8585C40.6066 89.5051 39.2891 87.6683 38.8282 85.3977C37.8503 80.591 40.955 75.3685 41.7531 74.1275L18.8262 62.4167L19.0802 61.9154L42.5782 73.9139L42.3961 74.177C42.3556 74.2354 38.3336 80.1392 39.3813 85.2852C39.8107 87.3985 41.0427 89.1139 43.0436 90.3819C53.8731 97.2478 63.8213 97.5041 68.8707 94.7096L74.2438 91.7398L98.5377 104.656L118.369 87.9336C117.083 86.9646 112.177 82.9179 112.548 77.7853C112.829 73.8982 116.085 70.3843 122.227 67.3335C133.459 61.7603 143.49 67.4144 144.927 68.2912L164.897 52.4663L140.059 39.3234C138.299 39.9597 120.867 46.0792 112.013 41.1287C107.969 38.8693 105.329 35.7038 104.588 32.2214C104.052 29.7169 104.547 27.2799 105.981 25.36L108.816 21.5605L84.7901 10.5175L85.0239 10.0049L109.68 21.3402L106.429 25.6972C105.096 27.4845 104.635 29.7619 105.136 32.1068C105.847 35.4318 108.385 38.4624 112.288 40.6431C121.197 45.6206 139.794 38.8266 139.983 38.7569L140.1 38.7119L165.918 52.3764L165.581 52.6439L144.956 68.9882L144.785 68.8758C144.679 68.8061 134.25 61.9941 122.474 67.8439C116.525 70.798 113.373 74.1567 113.106 77.8303C112.71 83.2866 118.917 87.6503 118.983 87.693L119.284 87.9021L98.6096 105.33Z" fill="#DFDFDF"/>
<path d="M245.126 95.3004L220.639 82.1058C219.191 83.2547 207.678 91.7438 193.131 83.5604C188.077 80.7187 185.412 77.533 185.221 74.0933C184.981 69.8488 188.549 66.6001 189.711 65.6581L164.902 52.4681L185.176 36.1013C183.819 35.1211 178.616 31.0361 178.466 25.8856C178.378 22.9135 180.008 20.1437 183.306 17.655C194.468 9.23104 209.549 15.0156 211.255 15.7125L231.06 0L231.41 0.440646L211.341 16.36L211.186 16.2926C211.028 16.2206 195.167 9.4064 183.645 18.1024C180.5 20.4764 178.944 23.0888 179.028 25.8698C179.187 31.3824 185.734 35.8068 185.801 35.8518L186.121 36.0631L165.919 52.3714L190.759 65.5795L190.392 65.8447C190.345 65.8807 185.518 69.4193 185.783 74.0663C185.966 77.3037 188.533 80.3343 193.409 83.0748C208.562 91.5954 220.311 81.6607 220.426 81.5595L220.572 81.4314L245.063 94.6282L264.656 78.5515C263.46 77.5758 258.944 73.565 259.079 68.5875C259.164 65.4176 261.14 62.5197 264.949 59.9725C277.084 51.8633 288.77 57.1038 290.247 57.8255L311.693 42.8773L312.014 43.3382L290.292 58.4819L290.14 58.3988C290.016 58.3336 277.894 51.9959 265.263 60.4401C261.615 62.8771 259.724 65.6244 259.643 68.601C259.499 73.9247 265.216 78.2772 265.277 78.3199L265.562 78.5357L245.126 95.3004Z" fill="#DFDFDF"/>
<path fill-rule="evenodd" clip-rule="evenodd" d="M294.356 56.1192V56.0244L294.348 56.0278L294.356 56.1192Z" fill="#00428E"/>
<path fill-rule="evenodd" clip-rule="evenodd" d="M281.966 36.5547C281.902 36.7319 281.655 36.8855 281.286 36.9067C280.034 36.9738 278.818 37.2832 277.863 37.8344C276.477 38.6362 275.978 39.7554 276.358 40.7921C276.179 41.2795 276.194 41.7892 276.407 42.2755C276.647 41.7343 277.13 41.2213 277.863 40.7971C278.818 40.2459 280.034 39.9365 281.286 39.8683C281.782 39.8418 282.066 39.5742 281.966 39.3298V36.5547Z" fill="#80A8D8"/>
<path fill-rule="evenodd" clip-rule="evenodd" d="M292.953 56.8754C290.874 58.1716 287.357 58.1936 285.199 56.9487C284.235 56.3922 283.709 55.6779 283.624 54.9525C283.568 54.4704 282.526 54.2617 281.938 54.6025L272.834 59.8582V62.8206L281.938 57.5641C282.526 57.2241 283.568 57.4328 283.624 57.9152C283.71 58.6417 284.234 59.3549 285.199 59.9112C287.357 61.1566 290.874 61.1343 292.953 59.8379C293.856 59.2744 294.317 58.5501 294.348 57.8182L294.354 57.8216V57.7341V57.7257V54.7705C294.357 55.5302 293.891 56.2905 292.953 56.8754Z" fill="#80A8D8"/>
<path fill-rule="evenodd" clip-rule="evenodd" d="M250.032 46.6924C249.461 46.3627 249.205 45.7613 249.26 45.1875L249.236 45.1797V48.4565L249.261 48.4576C249.307 48.9297 249.562 49.3842 250.032 49.6559L272.836 62.8208V59.8583L250.032 46.6924Z" fill="#8EB6E1"/>
<path fill-rule="evenodd" clip-rule="evenodd" d="M294.356 54.7647V54.6699L294.348 54.6722L294.356 54.7647Z" fill="#00428E"/>
<path fill-rule="evenodd" clip-rule="evenodd" d="M288.709 50.6938C288.119 51.0338 288.493 51.6271 289.327 51.6592L289.375 51.6633L288.709 52.0465C288.119 52.3873 288.493 52.9815 289.327 53.0141C289.475 53.0202 289.622 53.0294 289.769 53.0425L297.826 48.391V45.4297L288.709 50.6938Z" fill="#80A8D8"/>
<path fill-rule="evenodd" clip-rule="evenodd" d="M277.861 37.8344C275.578 39.1531 275.69 41.3324 278.187 42.5846C280.226 43.6082 283.566 43.6043 285.578 42.5779C286.691 42.0102 287.312 41.2511 287.442 40.4696C287.504 40.0915 288.278 39.9195 288.744 40.189L297.825 45.4316L288.708 50.6954C288.118 51.0354 288.491 51.6288 289.326 51.6608C290.646 51.7129 291.942 52.0446 292.926 52.6549C294.822 53.8318 294.833 55.7048 292.954 56.8758C290.875 58.172 287.358 58.194 285.2 56.9491C284.236 56.3926 283.711 55.6783 283.625 54.9529C283.569 54.4708 282.527 54.2621 281.94 54.6029L272.835 59.8586L250.032 46.6927C248.989 46.0913 248.989 44.5878 250.032 43.9872L272.677 30.9121L281.76 36.1553C282.223 36.4231 281.932 36.8707 281.283 36.9061C280.032 36.9738 278.816 37.2832 277.861 37.8344Z" fill="#B7D9F2"/>
<path fill-rule="evenodd" clip-rule="evenodd" d="M277.862 37.5158C276.633 38.2261 276.104 39.1854 276.262 40.1153C276.385 39.398 276.913 38.7002 277.862 38.1539C278.817 37.6013 280.033 37.2923 281.284 37.2248C281.934 37.1891 282.225 36.7427 281.762 36.4743L281.745 36.4648C281.626 36.5292 281.473 36.5769 281.284 36.5869C280.033 36.6549 278.817 36.9642 277.862 37.5158Z" fill="white"/>
<path fill-rule="evenodd" clip-rule="evenodd" d="M288.709 50.3748C288.349 50.5822 288.349 50.8845 288.591 51.0952L288.709 51.0127L297.826 45.7489L297.273 45.4307L288.709 50.3748Z" fill="white"/>
<path fill-rule="evenodd" clip-rule="evenodd" d="M292.955 56.5576C290.877 57.8541 287.36 57.8764 285.202 56.6312C284.238 56.0736 283.712 55.3615 283.627 54.6339C283.571 54.1526 282.529 53.9441 281.941 54.2838L272.837 59.5407L250.033 46.3745C249.618 46.1343 249.371 45.7522 249.286 45.3408C249.159 45.9626 249.407 46.6504 250.033 47.0115L272.837 60.1775L281.941 54.9218C282.529 54.5812 283.571 54.7908 283.627 55.2718C283.713 55.9975 284.236 56.7115 285.202 57.268C287.36 58.5143 290.877 58.4909 292.955 57.1947C294.022 56.5303 294.478 55.6382 294.328 54.7763C294.216 55.4253 293.761 56.0563 292.955 56.5576Z" fill="white"/>
<path fill-rule="evenodd" clip-rule="evenodd" d="M3.4707 106.354V106.26L3.47851 106.263L3.4707 106.354Z" fill="#00428E"/>
<path fill-rule="evenodd" clip-rule="evenodd" d="M15.8636 86.79C15.9274 86.967 16.1749 87.1206 16.5442 87.142C17.7946 87.2092 19.0114 87.5185 19.9667 88.0698C21.3531 88.8715 21.8517 89.9907 21.4713 91.0272C21.6516 91.5146 21.636 92.0243 21.4225 92.5106C21.1815 91.9694 20.6994 91.4566 19.9667 91.0322C19.0114 90.4809 17.7946 90.1716 16.5442 90.1033C16.0478 90.0771 15.7638 89.8093 15.8636 89.5652V86.79Z" fill="#80A8D8"/>
<path fill-rule="evenodd" clip-rule="evenodd" d="M4.86888 107.111C6.94954 108.407 10.4666 108.429 12.6244 107.184C13.5887 106.628 14.114 105.913 14.1993 105.188C14.2553 104.706 15.2956 104.497 15.885 104.838L24.9894 110.093V113.056L15.885 107.799C15.2956 107.459 14.2553 107.668 14.1993 108.15C14.1137 108.877 13.5887 109.59 12.6244 110.147C10.4663 111.392 6.94926 111.369 4.86971 110.073C3.96733 109.51 3.50666 108.785 3.47489 108.054L3.46877 108.056V107.969V107.96V105.005C3.4657 105.766 3.93166 106.525 4.86888 107.111Z" fill="#80A8D8"/>
<path fill-rule="evenodd" clip-rule="evenodd" d="M47.792 96.927C48.3627 96.5976 48.6189 95.9965 48.564 95.4224L48.5874 95.4141V98.6908L48.5628 98.692C48.5163 99.1643 48.2616 99.6192 47.792 99.8906L24.9883 113.055V110.093L47.792 96.927Z" fill="#8EB6E1"/>
<path fill-rule="evenodd" clip-rule="evenodd" d="M3.4707 104.999V104.905L3.47851 104.907L3.4707 104.999Z" fill="#00428E"/>
<path fill-rule="evenodd" clip-rule="evenodd" d="M9.11664 100.929C9.70662 101.269 9.33346 101.862 8.49907 101.895L8.4503 101.899L9.11691 102.282C9.70689 102.623 9.33373 103.217 8.49934 103.25C8.3508 103.256 8.20421 103.265 8.05679 103.278L0 98.6269V95.665L9.11664 100.929Z" fill="#80A8D8"/>
<path fill-rule="evenodd" clip-rule="evenodd" d="M19.9642 88.069C22.2472 89.3878 22.1351 91.5665 19.6376 92.8192C17.5987 93.8428 14.2586 93.8387 12.2474 92.812C11.1343 92.2443 10.5139 91.4854 10.3824 90.704C10.3203 90.3253 9.54719 90.1533 9.08039 90.4231L0 95.6657L9.11691 100.93C9.70689 101.269 9.33373 101.863 8.49934 101.895C7.17782 101.947 5.88193 102.278 4.89761 102.889C3.00339 104.066 2.99223 105.939 4.87029 107.11C6.94984 108.407 10.4669 108.429 12.625 107.183C13.5893 106.627 14.1146 105.913 14.1999 105.188C14.2559 104.705 15.2962 104.497 15.8856 104.838L24.99 110.093L47.7937 96.927C48.8351 96.3259 48.8351 94.8221 47.7937 94.2218L25.1466 81.1465L16.0648 86.3902C15.6019 86.6578 15.8918 87.1056 16.5419 87.141C17.7921 87.2085 19.0088 87.5178 19.9642 88.069Z" fill="#B7D9F2"/>
<path fill-rule="evenodd" clip-rule="evenodd" d="M19.9621 87.7499C21.1911 88.4597 21.72 89.4192 21.5625 90.3492C21.4394 89.6321 20.9104 88.934 19.9621 88.3878C19.0067 87.8354 17.79 87.5261 16.5395 87.4589C15.8896 87.4232 15.5995 86.9757 16.0624 86.7081L16.0786 86.6992C16.1979 86.763 16.3503 86.8107 16.5395 86.8213C17.79 86.8893 19.0067 87.1983 19.9621 87.7499Z" fill="white"/>
<path fill-rule="evenodd" clip-rule="evenodd" d="M9.11691 100.61C9.47697 100.816 9.47698 101.118 9.23508 101.33L9.11691 101.248L0 95.9839L0.551502 95.665L9.11691 100.61Z" fill="white"/>
<path fill-rule="evenodd" clip-rule="evenodd" d="M4.8702 106.791C6.94975 108.087 10.4668 108.11 12.6249 106.864C13.5892 106.307 14.1145 105.594 14.1998 104.867C14.2558 104.386 15.2961 104.178 15.8855 104.517L24.9899 109.774L47.7936 96.6079C48.2074 96.3676 48.4558 95.9853 48.5391 95.5742C48.6676 96.196 48.4204 96.8835 47.7936 97.2447L24.9899 110.411L15.8855 105.155C15.2961 104.814 14.2558 105.024 14.1998 105.505C14.1142 106.231 13.5892 106.945 12.6249 107.501C10.4668 108.747 6.94975 108.724 4.8702 107.428C3.80395 106.763 3.34803 105.871 3.4988 105.009C3.61083 105.659 4.06563 106.289 4.8702 106.791Z" fill="white"/>
<path fill-rule="evenodd" clip-rule="evenodd" d="M191.305 197.035L166.158 182.517V185.479L191.305 199.999V197.035Z" fill="#8EB6E1"/>
<path fill-rule="evenodd" clip-rule="evenodd" d="M200.496 191.676L200.333 191.825L191.307 197.035V199.999L200.333 194.788C200.569 194.652 200.604 194.468 200.496 194.316V191.676Z" fill="#80A8D8"/>
<path fill-rule="evenodd" clip-rule="evenodd" d="M207.272 187.817C206.809 188.085 206.034 187.91 205.968 187.532C205.828 186.75 205.2 185.988 204.08 185.417C202.058 184.383 198.717 184.368 196.69 185.382C195.077 186.189 194.482 187.391 194.887 188.497C194.706 188.987 194.721 189.495 194.935 189.983C195.205 189.37 195.789 188.796 196.69 188.345C198.717 187.33 202.058 187.346 204.08 188.379C205.2 188.952 205.829 189.712 205.968 190.494C206.034 190.873 206.809 191.048 207.272 190.78L216.296 185.57V182.607L207.272 187.817Z" fill="#80A8D8"/>
<path fill-rule="evenodd" clip-rule="evenodd" d="M182.619 177.015C183.974 177.096 185.292 177.459 186.283 178.105C186.877 178.492 187.272 178.964 187.477 179.465C187.678 178.981 187.693 178.469 187.525 177.979C187.865 176.991 187.45 175.904 186.283 175.142C185.292 174.496 183.974 174.133 182.619 174.053C182.244 174.03 181.989 173.873 181.923 173.692V176.471C181.825 176.716 182.116 176.986 182.619 177.015Z" fill="#8EB6E1"/>
<path fill-rule="evenodd" clip-rule="evenodd" d="M207.132 178.672L208.186 179.282C209.281 179.188 210.335 178.899 211.177 178.413C212.28 177.776 212.794 176.93 212.73 176.093V174.738V174.733V173.378C212.684 174.132 212.171 174.877 211.177 175.451C210.218 176.004 208.985 176.302 207.728 176.347C206.895 176.376 206.54 176.976 207.132 177.318L207.789 177.698L207.728 177.702C206.895 177.731 206.54 178.33 207.132 178.672Z" fill="#80A8D8"/>
<path fill-rule="evenodd" clip-rule="evenodd" d="M203.691 170.962C202.639 171.526 202.074 172.273 201.992 173.035C201.941 173.517 200.916 173.729 200.323 173.386L200.309 173.379L191.148 168.089L182.124 173.299C181.66 173.568 181.965 174.014 182.619 174.053C183.974 174.134 185.292 174.497 186.283 175.143C188.072 176.311 188.101 178.239 186.343 179.409C184.189 180.844 180.413 180.895 178.116 179.568C177.155 179.013 176.611 178.309 176.486 177.586C176.421 177.212 175.644 177.041 175.184 177.306L166.158 182.517L191.305 197.035L200.331 191.824C200.792 191.559 200.496 191.11 199.846 191.073C198.594 191.001 197.374 190.687 196.414 190.132C194.116 188.806 194.204 186.625 196.688 185.382C198.715 184.367 202.056 184.383 204.079 185.417C205.198 185.989 205.827 186.75 205.966 187.532C206.032 187.91 206.808 188.085 207.27 187.818L216.295 182.608L207.133 177.318C206.541 176.976 206.896 176.376 207.729 176.347C208.987 176.302 210.22 176.004 211.178 175.451C213.322 174.212 213.26 172.182 211.002 170.973C208.961 169.881 205.718 169.876 203.691 170.962Z" fill="#B7D9F2"/>
<path fill-rule="evenodd" clip-rule="evenodd" d="M211.177 175.131C210.219 175.685 208.985 175.983 207.728 176.028C206.965 176.054 206.605 176.56 207.005 176.907C207.157 176.774 207.407 176.676 207.728 176.665C208.986 176.62 210.219 176.322 211.177 175.769C212.362 175.085 212.869 174.158 212.708 173.262C212.588 173.946 212.081 174.609 211.177 175.131Z" fill="white"/>
<path fill-rule="evenodd" clip-rule="evenodd" d="M182.619 174.371C183.974 174.451 185.292 174.815 186.283 175.461C187.063 175.97 187.508 176.623 187.616 177.296C187.753 176.412 187.309 175.493 186.283 174.823C185.292 174.177 183.974 173.814 182.619 173.734C182.426 173.723 182.267 173.673 182.146 173.604L182.124 173.618C181.659 173.886 181.965 174.333 182.619 174.371Z" fill="white"/>
<path fill-rule="evenodd" clip-rule="evenodd" d="M207.271 187.499C206.808 187.767 206.033 187.591 205.967 187.214C205.828 186.43 205.199 185.67 204.08 185.098C202.057 184.064 198.716 184.048 196.688 185.063C195.247 185.785 194.618 186.823 194.789 187.825C194.923 187.035 195.552 186.27 196.688 185.701C198.716 184.686 202.057 184.703 204.08 185.735C205.199 186.307 205.828 187.068 205.967 187.85C206.033 188.228 206.808 188.404 207.271 188.136L216.295 182.926L215.744 182.607L207.271 187.499Z" fill="white"/>
<path fill-rule="evenodd" clip-rule="evenodd" d="M200.311 191.517L191.305 196.716L166.709 182.517L166.158 182.835L191.305 197.354L200.331 192.143C200.657 191.955 200.6 191.678 200.311 191.517Z" fill="white"/>
<path fill-rule="evenodd" clip-rule="evenodd" d="M322.134 92.5612C310.641 92.0059 298.961 91.5836 288.112 88.9961C270.524 84.7993 268.158 83.3867 253.528 78.5497C242.298 74.8362 237.639 71.5604 232.406 64.3439C226.678 56.4415 227.185 37.9025 211.175 28.7357C205.09 25.2507 201.865 23.7579 195.888 21.8731C180.907 17.1488 162.192 15.4826 145.451 16.319C122.466 17.4672 104.61 25.028 87.522 34.8926C81.9845 38.0897 78.7943 40.5352 75.1702 43.7103C64.6007 52.9712 60.8302 64.2293 63.8444 74.9924C64.2561 76.4633 64.86 78.1105 65.6116 79.4856C69.556 86.6913 80.8021 97.2174 93.8632 99.673C100.606 100.94 104.095 102.49 106.259 106.275C108.181 109.637 111.447 116.796 114.076 119.753C114.453 120.178 114.873 120.533 115.323 120.828L115.925 121.176C118.533 122.499 122.008 122.06 124.988 120.897C129.219 119.246 127.052 118.19 136.805 123.93C139.545 125.541 139.974 125.233 144.585 124.412C145.771 125.51 145.246 127.236 150.638 127.982C153.588 128.39 156.491 128.126 159.291 129.888C161.045 130.991 162.214 132.885 166.491 134.608C168.024 135.227 169.254 135.519 170.811 135.436C186.311 134.602 193.111 119.642 207.128 119.331C208.86 119.292 209.442 119.203 211.162 119.692C220.348 122.305 234.489 128.358 238.301 133.731C238.918 134.598 239.184 135.283 239.701 136.059L241.49 138.848L241.518 138.844C251.143 144.401 276.819 138.586 298.866 125.858C320.569 113.327 330.666 98.7674 321.796 93.015L322.134 92.5612Z" fill="#A0C6E9"/>
<g opacity="0.1">
<path d="M180.175 47.3588L168.476 54.1576C168.478 54.1596 168.523 54.1959 168.636 54.261C169 54.471 170.046 54.9604 172.389 55.3455C173.736 55.4707 175.033 55.8337 176.075 56.4353C178.707 57.9546 178.721 60.4178 176.106 61.9371C173.492 63.4565 169.239 63.4565 166.608 61.9371C165.566 61.3355 164.934 60.5859 164.714 59.8059C164.693 59.7643 164.004 58.4602 162.533 57.6111L153.518 62.8502L141.178 55.7255C142.617 54.8892 144.818 54.4939 144.954 54.4702C146.307 54.3441 147.599 53.9811 148.634 53.3795C151.248 51.8601 151.234 49.3965 148.603 47.8777C145.972 46.3582 141.719 46.3584 139.105 47.8777C138.07 48.4793 137.446 49.2282 137.235 50.0089C136.374 51.785 135.255 52.2476 135.196 52.272L125.35 46.5872L149.874 32.3354C151.046 31.6541 152.973 31.6536 154.154 32.3354L180.175 47.3588Z" fill="black"/>
</g>
<path d="M148.416 43.1127L148.397 49.8439C148.399 48.8858 147.767 47.9264 146.501 47.1956C143.985 45.7431 139.92 45.7431 137.421 47.1956C136.431 47.7708 135.835 48.4867 135.633 49.233L135.652 42.5018C135.854 41.7554 136.45 41.0395 137.44 40.4644C139.939 39.0119 144.005 39.0119 146.52 40.4644C147.786 41.1952 148.418 42.1546 148.416 43.1127Z" fill="#5F9E43"/>
<path d="M135.652 42.501L135.633 49.2322C134.81 50.9303 133.74 51.3725 133.684 51.3958L133.703 44.6646C133.759 44.6413 134.829 44.1991 135.652 42.501Z" fill="#5F9E43"/>
<path d="M133.704 44.6662L133.685 51.3974L124.271 45.9626L124.291 39.2314L133.704 44.6662Z" fill="#6CB545"/>
<path d="M176.704 39.9688L176.685 46.7L165.5 53.1997L165.519 46.4685L176.704 39.9688Z" fill="#5F9E43"/>
<path d="M161.92 51.8668L161.901 58.598C161.881 58.5582 161.222 57.3115 159.816 56.4997L159.836 49.7686C161.241 50.5802 161.9 51.827 161.92 51.8668Z" fill="#5F9E43"/>
<path d="M151.221 54.7782L151.202 61.5094L139.404 54.698L139.423 47.9668L151.221 54.7782Z" fill="#6CB545"/>
<path d="M159.839 49.7686L159.82 56.4999L151.201 61.5085L151.22 54.7773L159.839 49.7686Z" fill="#5F9E43"/>
<path d="M176.707 39.9678L165.523 46.4676C165.525 46.4694 165.568 46.5042 165.675 46.5663C166.023 46.767 167.023 47.235 169.263 47.6031C170.551 47.7229 171.791 48.0699 172.787 48.645C175.303 50.0976 175.317 52.4524 172.817 53.9048C170.317 55.3574 166.252 55.3574 163.736 53.9048C162.74 53.3297 162.136 52.613 161.925 51.8675C161.906 51.8277 161.247 50.5808 159.841 49.7692L151.222 54.7778L139.425 47.9664C140.801 47.1668 142.905 46.7891 143.036 46.7663C144.329 46.6456 145.564 46.2987 146.553 45.7236C149.053 44.2711 149.039 41.9159 146.524 40.4637C144.008 39.0111 139.943 39.0111 137.443 40.4637C136.453 41.0388 135.858 41.7547 135.655 42.501C134.832 44.1991 133.763 44.6414 133.706 44.6646L124.293 39.2299L147.738 25.6049C148.859 24.9535 150.701 24.9531 151.83 25.6049L176.707 39.9678Z" fill="#90C965"/>
<path d="M174.679 51.293L174.66 58.0242C174.657 58.9699 174.036 59.9141 172.794 60.6358C170.294 62.0884 166.229 62.0884 163.713 60.6358C162.717 60.0607 162.113 59.344 161.902 58.5984L161.921 51.8672C162.132 52.6127 162.736 53.3294 163.732 53.9045C166.248 55.3571 170.313 55.3571 172.813 53.9045C174.055 53.1829 174.676 52.2387 174.679 51.293Z" fill="#5F9E43"/>
<g opacity="0.1">
<path d="M134.057 55.9527C136.688 57.4717 136.703 59.9352 134.088 61.4545C133.054 62.0557 131.762 62.4186 130.415 62.5438C130.272 62.5689 128.071 62.9637 126.632 63.8005L138.972 70.9252L127.909 77.3542C126.438 76.5052 125.749 75.2006 125.728 75.1598C125.508 74.3796 124.876 73.6295 123.834 73.0279C121.202 71.5084 116.95 71.5086 114.335 73.0279C111.721 74.5474 111.735 77.0104 114.366 78.5297C115.408 79.1313 116.706 79.4947 118.053 79.6195C120.396 80.0045 121.442 80.4943 121.806 80.7044C121.919 80.7694 121.964 80.8059 121.966 80.8077L112.717 86.1826L86.6961 71.1593C85.5153 70.4774 85.5097 69.3615 86.6822 68.68L110.804 54.6621L120.65 60.3469C120.709 60.3225 121.828 59.8599 122.689 58.0833C122.901 57.3026 123.524 56.5537 124.559 55.9526C127.173 54.4332 131.426 54.4332 134.057 55.9527Z" fill="black"/>
</g>
<path d="M133.056 52.043L133.037 58.7742C133.035 59.7199 132.413 60.6641 131.172 61.3857C130.183 61.9604 128.948 62.3074 127.66 62.4271L127.679 55.6959C128.967 55.5762 130.202 55.2291 131.191 54.6545C132.432 53.933 133.054 52.9887 133.056 52.043Z" fill="#D98B54"/>
<path d="M127.675 55.6963L127.656 62.4275C127.52 62.4514 125.416 62.8289 124.039 63.6289L124.058 56.8977C125.435 56.0977 127.539 55.7202 127.675 55.6963Z" fill="#D98B54"/>
<path d="M85.0117 69.4715L85.0309 62.7402C85.0296 63.1725 85.3131 63.6056 85.8812 63.9337L85.8621 70.6648C85.294 70.3368 85.0105 69.9038 85.0117 69.4715Z" fill="#E7945A"/>
<path d="M110.42 75.0622L110.439 68.331C110.442 67.3853 111.063 66.4409 112.305 65.7193C114.805 64.2667 118.87 64.2667 121.386 65.7193C122.382 66.2944 122.986 67.0114 123.197 67.7574L123.177 74.4886C122.967 73.7427 122.363 73.0255 121.367 72.4503C118.851 70.9978 114.785 70.9978 112.286 72.4503C111.044 73.1723 110.423 74.1165 110.42 75.0622Z" fill="#E7945A"/>
<path d="M125.28 69.8556L125.261 76.5868C123.855 75.7752 123.196 74.5279 123.176 74.489L123.195 67.7578C123.215 67.7968 123.874 69.044 125.28 69.8556Z" fill="#E7945A"/>
<path d="M135.855 63.709L135.836 70.4402L125.26 76.5865L125.279 69.8553L135.855 63.709Z" fill="#D98B54"/>
<path d="M110.757 78.2953L110.738 85.0264L85.8613 70.6638L85.8803 63.9326L110.757 78.2953Z" fill="#E7945A"/>
<path d="M131.156 49.3956C133.671 50.8477 133.685 53.2028 131.185 54.6554C130.196 55.2301 128.962 55.5771 127.674 55.6968C127.537 55.7207 125.433 56.0982 124.057 56.8982L135.854 63.7096L125.278 69.8559C123.872 69.0443 123.213 67.797 123.193 67.7581C122.983 67.0121 122.378 66.2949 121.382 65.72C118.866 64.2674 114.801 64.2674 112.302 65.72C109.802 67.1725 109.815 69.5274 112.331 70.9798C113.327 71.5549 114.568 71.9022 115.855 72.0216C118.095 72.3898 119.096 72.8579 119.444 73.0588C119.552 73.1209 119.595 73.1558 119.597 73.1577L110.754 78.2962L85.8778 63.9336C84.7488 63.2817 84.7434 62.2148 85.8644 61.5634L108.925 48.1621L118.338 53.5969C118.395 53.5736 119.465 53.1314 120.288 51.4329C120.49 50.6865 121.086 49.9707 122.075 49.3959C124.575 47.9431 128.64 47.9431 131.156 49.3956Z" fill="url(#paint0_linear_3444_48592)"/>
<path d="M119.602 73.1582L119.583 79.8894L110.74 85.0279L110.759 78.2967L119.602 73.1582Z" fill="#D98B54"/>
<g opacity="0.1">
<path d="M220.438 70.6082C221.618 71.29 221.623 72.4056 220.451 73.087L195.927 87.3388L184.766 80.8951C184.387 81.1218 183.577 81.7301 182.938 83.0466C182.726 83.8268 182.103 84.5771 181.068 85.1785C178.454 86.6975 174.201 86.698 171.57 85.1785C168.937 83.6588 168.924 81.1953 171.538 79.6763C172.573 79.0747 173.865 78.7114 175.212 78.586C175.281 78.5736 177.329 78.2145 178.787 77.4431L167.76 71.0766L176.775 65.8375C178.246 66.6864 178.935 67.9907 178.955 68.0314C179.176 68.8121 179.808 69.5619 180.849 70.1633C183.481 71.6826 187.733 71.6826 190.348 70.1633C192.962 68.644 192.948 66.1808 190.317 64.6615C189.275 64.0599 187.978 63.6969 186.631 63.5717C184.288 63.1867 183.241 62.6972 182.878 62.4872C182.765 62.4221 182.72 62.3858 182.718 62.3838L194.417 55.585L220.438 70.6082Z" fill="black"/>
</g>
<path d="M185.264 56.8426L185.245 63.5738C183.005 63.2056 182.004 62.7376 181.657 62.537C181.549 62.4748 181.506 62.4401 181.504 62.4382L181.523 55.707C181.525 55.7089 181.568 55.7436 181.676 55.8058C182.024 56.0066 183.024 56.4746 185.264 56.8426Z" fill="#364F99"/>
<path d="M190.683 60.5329L190.664 67.2641C190.666 66.3061 190.034 65.3468 188.768 64.6158C187.772 64.0407 186.532 63.6938 185.244 63.574L185.263 56.8428C186.551 56.9625 187.791 57.3095 188.787 57.8846C190.053 58.6156 190.685 59.5749 190.683 60.5329Z" fill="#364F99"/>
<path d="M218.433 64.7617L218.414 71.4929C218.412 71.9199 218.133 72.3462 217.576 72.67L217.595 65.9388C218.152 65.615 218.432 65.1887 218.433 64.7617Z" fill="#31478B"/>
<path d="M177.766 70.1042L177.747 76.8354L167.205 70.7488L167.224 64.0176L177.766 70.1042Z" fill="#364F99"/>
<path d="M183.485 73.4033L183.466 80.1345C183.104 80.3513 182.329 80.9328 181.719 82.1914L181.738 75.4602C182.348 74.2016 183.123 73.6201 183.485 73.4033Z" fill="#31478B"/>
<path d="M168.949 81.5818L168.968 74.8506C168.966 75.8086 169.598 76.7682 170.864 77.4993C173.38 78.9519 177.446 78.9514 179.945 77.4993C180.935 76.9242 181.53 76.207 181.733 75.4611L181.714 82.1923C181.51 82.9382 180.915 83.6554 179.926 84.2303C177.427 85.6825 173.361 85.6829 170.845 84.2303C169.579 83.4995 168.946 82.5399 168.949 81.5818Z" fill="#31478B"/>
<path d="M217.595 65.9395L217.576 72.6706L194.131 86.2956L194.15 79.5644L217.595 65.9395Z" fill="#31478B"/>
<path d="M217.585 63.569C218.714 64.2209 218.719 65.2874 217.598 65.9389L194.153 79.5638L183.483 73.4035C183.121 73.6202 182.346 74.2018 181.735 75.4604C181.532 76.2064 180.937 76.9235 179.948 77.4986C177.449 78.9508 173.383 78.9512 170.867 77.4986C168.35 76.0458 168.338 73.6905 170.837 72.2384C171.826 71.6633 173.062 71.3159 174.35 71.1961C174.415 71.1843 176.373 70.8409 177.767 70.1035L167.225 64.017L175.843 59.0084C177.249 59.82 177.908 61.0668 177.928 61.1059C178.139 61.8523 178.742 62.569 179.739 63.144C182.254 64.5965 186.32 64.5965 188.819 63.144C191.319 61.6914 191.305 59.3366 188.79 57.8841C187.794 57.309 186.553 56.962 185.266 56.8423C183.025 56.4741 182.025 56.0062 181.678 55.8055C181.57 55.7434 181.527 55.7086 181.525 55.7068L192.709 49.207L217.585 63.569Z" fill="url(#paint1_linear_3444_48592)"/>
<path d="M194.152 79.5637L194.133 86.2949L183.463 80.1345L183.482 73.4033L194.152 79.5637Z" fill="#364F99"/>
<g opacity="0.1">
<path d="M182.472 95.5969L158.35 109.615C157.178 110.296 155.252 110.297 154.071 109.615L128.05 94.5923L137.299 89.2179C137.296 89.2159 137.251 89.1793 137.138 89.1138C136.773 88.9033 135.727 88.4138 133.386 88.0292C132.039 87.9045 130.741 87.5411 129.7 86.9395C127.068 85.4202 127.054 82.9569 129.669 81.4376C132.283 79.9182 136.536 79.9182 139.167 81.4376C140.209 82.0392 140.841 82.7893 141.061 83.5688C141.082 83.6105 141.772 84.915 143.242 85.764L154.305 79.335L165.332 85.7015C163.875 86.4724 161.827 86.8317 161.76 86.8439C160.411 86.9692 159.119 87.3326 158.084 87.9342C155.47 89.4535 155.483 91.9167 158.116 93.4364C160.747 94.9558 165 94.9558 167.614 93.4364C168.649 92.8348 169.272 92.0848 169.484 91.3045C170.123 89.988 170.933 89.3797 171.311 89.1534L182.472 95.5969Z" fill="black"/>
</g>
<path d="M162.819 78.7861L162.8 85.5173C161.407 86.2544 159.448 86.5978 159.385 86.6095L159.404 79.8784C159.467 79.8666 161.426 79.5232 162.819 78.7861Z" fill="#A96A9E"/>
<path d="M126.838 84.0534L126.857 77.3223C126.854 78.2802 127.487 79.2396 128.753 79.9705C129.749 80.5456 130.989 80.893 132.277 81.0124L132.257 87.7436C130.97 87.6243 129.73 87.2768 128.733 86.7017C127.467 85.9708 126.835 85.0114 126.838 84.0534Z" fill="#B572A9"/>
<path d="M136.018 82.1482L135.999 88.8794C135.996 88.8775 135.953 88.8425 135.845 88.7798C135.496 88.5786 134.496 88.1108 132.258 87.7429L132.277 81.0117C134.515 81.3796 135.515 81.8474 135.864 82.0487C135.972 82.1113 136.016 82.1463 136.018 82.1482Z" fill="#B572A9"/>
<path d="M154.008 90.262L154.027 83.5308C154.03 82.5851 154.651 81.6409 155.893 80.9193C156.882 80.3442 158.118 79.9968 159.407 79.877L159.388 86.6081C158.099 86.7278 156.863 87.0753 155.874 87.6505C154.632 88.3721 154.011 89.3163 154.008 90.262Z" fill="#A96A9E"/>
<path d="M179.203 88.2471L179.184 94.9783L156.123 108.38L156.142 101.649L179.203 88.2471Z" fill="#A96A9E"/>
<path d="M152.05 101.648L152.03 108.38L127.154 94.0175L127.173 87.2861L152.05 101.648Z" fill="#B572A9"/>
<path d="M156.144 101.647L156.124 108.379C155.003 109.03 153.162 109.031 152.033 108.379L152.052 101.648C153.181 102.3 155.023 102.299 156.144 101.647Z" fill="#B572A9"/>
<path d="M179.204 88.2461L156.144 101.647C155.023 102.299 153.181 102.3 152.052 101.648L127.176 87.2857L136.018 82.1476C136.016 82.1457 135.972 82.1107 135.864 82.0481C135.515 81.8468 134.515 81.379 132.277 81.0111C130.99 80.8917 129.749 80.5444 128.753 79.9692C126.237 78.5167 126.224 76.162 128.723 74.7095C131.223 73.2569 135.288 73.2569 137.804 74.7095C138.8 75.2846 139.405 76.0017 139.615 76.7468C139.635 76.7866 140.294 78.0337 141.7 78.8455L152.276 72.6992L162.819 78.7856C161.426 79.5227 159.467 79.8661 159.403 79.8779C158.114 79.9976 156.879 80.3451 155.889 80.9202C153.39 82.3728 153.403 84.7275 155.92 86.1804C158.435 87.633 162.501 87.633 165 86.1804C165.99 85.6053 166.585 84.8881 166.788 84.1422C167.398 82.8837 168.173 82.302 168.534 82.0857L179.204 88.2461Z" fill="url(#paint2_linear_3444_48592)"/>
</g>
<defs>
<linearGradient id="paint0_linear_3444_48592" x1="85.0273" y1="63.229" x2="135.854" y2="63.229" gradientUnits="userSpaceOnUse">
<stop stop-color="#F7DE69"/>
<stop offset="1" stop-color="#F6CB3E"/>
</linearGradient>
<linearGradient id="paint1_linear_3444_48592" x1="167.225" y1="64.3853" x2="218.435" y2="64.3853" gradientUnits="userSpaceOnUse">
<stop stop-color="#8B87C1"/>
<stop offset="0.3365" stop-color="#807CBB"/>
<stop offset="1" stop-color="#6F6BB1"/>
</linearGradient>
<linearGradient id="paint2_linear_3444_48592" x1="126.857" y1="87.4178" x2="179.204" y2="87.4178" gradientUnits="userSpaceOnUse">
<stop stop-color="#F38CB5"/>
<stop offset="0.0857" stop-color="#F289B3"/>
<stop offset="1" stop-color="#ED75A2"/>
</linearGradient>
</defs>
</svg>
