<svg width="179" height="187" viewBox="0 0 179 187" fill="none" xmlns="http://www.w3.org/2000/svg">
<path d="M92.1846 -77.3809C96.0927 -79.6372 100.907 -79.6372 104.815 -77.3809L176.646 -35.9102C180.554 -33.6537 182.961 -29.4835 182.961 -24.9707V57.9707C182.961 62.4835 180.554 66.6538 176.646 68.9102L104.815 110.381C100.907 112.637 96.0927 112.637 92.1846 110.381L20.3545 68.9102C16.4463 66.6537 14.0391 62.4835 14.0391 57.9707V-24.9707C14.0391 -29.4835 16.4463 -33.6537 20.3545 -35.9102L92.1846 -77.3809Z" stroke="url(#paint0_linear_24478_26021)" stroke-width="1.68421"/>
<path d="M172.185 82.6191C176.093 80.3628 180.907 80.3628 184.815 82.6191L218.54 102.09C222.448 104.346 224.856 108.516 224.856 113.029V151.971C224.856 156.484 222.448 160.654 218.54 162.91L184.815 182.381C180.907 184.637 176.093 184.637 172.185 182.381L138.46 162.91C134.552 160.654 132.144 156.484 132.144 151.971V113.029C132.144 108.516 134.552 104.346 138.46 102.09L172.185 82.6191Z" stroke="url(#paint1_linear_24478_26021)" stroke-width="1.68421"/>
<defs>
<linearGradient id="paint0_linear_24478_26021" x1="6.72539e-08" y1="16.5144" x2="197" y2="16.5084" gradientUnits="userSpaceOnUse">
<stop stop-color="#C2D6FF"/>
<stop offset="1" stop-color="#B9F1F1"/>
</linearGradient>
<linearGradient id="paint1_linear_24478_26021" x1="124" y1="132.508" x2="233" y2="132.505" gradientUnits="userSpaceOnUse">
<stop stop-color="#C2D6FF"/>
<stop offset="1" stop-color="#B9F1F1"/>
</linearGradient>
</defs>
</svg>
